/* XPM */
static char *result[] = {
/* columns rows colors chars-per-pixel */
"64 64 171 2 ",
"   c #000000",
".  c #0D0B00",
"X  c #00000D",
"o  c #090500",
"O  c #131201",
"+  c #181500",
"@  c #1B190A",
"#  c #1B1906",
"$  c #000013",
"%  c #0B0B14",
"&  c #00001A",
"*  c #080B1E",
"=  c #0F1419",
"-  c #161515",
";  c #111718",
":  c #1C1C18",
">  c #191915",
",  c #201F19",
"<  c #1F2108",
"1  c #242105",
"2  c #282708",
"3  c #2A290C",
"4  c #322F00",
"5  c #3D3B00",
"6  c #38370B",
"7  c #242216",
"8  c #25241A",
"9  c #29271A",
"0  c #2B291A",
"q  c #2B2916",
"w  c #312E1E",
"e  c #383712",
"r  c #000029",
"t  c #060B23",
"y  c #0B1425",
"u  c #171828",
"i  c #1B1C29",
"p  c #252424",
"a  c #2C2B24",
"s  c #2C2C2C",
"d  c #363424",
"f  c #232532",
"g  c #343332",
"h  c #3A3A3A",
"j  c #3B3A37",
"k  c #403E0D",
"l  c #413F10",
"z  c #484500",
"x  c #4C4A0F",
"c  c #464307",
"v  c #565100",
"b  c #434112",
"n  c #45431B",
"m  c #4F4C14",
"M  c #565211",
"N  c #5B5711",
"B  c #655F00",
"V  c #645E13",
"C  c #6A6400",
"Z  c #6B6514",
"A  c #676218",
"S  c #6E691D",
"D  c #6A6514",
"F  c #706915",
"G  c #7A7417",
"H  c #4B4A29",
"J  c #5B5726",
"K  c #555332",
"L  c #2F3347",
"P  c #383A47",
"I  c #3C3F51",
"U  c #474748",
"Y  c #4E4E4D",
"T  c #474742",
"R  c #50504F",
"E  c #535353",
"W  c #5B5B5A",
"Q  c #605F59",
"!  c #7A7642",
"~  c #61615F",
"^  c #706F5E",
"/  c #525463",
"(  c #5D5E6B",
")  c #585A65",
"_  c #646462",
"`  c #6D6D6D",
"'  c #60616B",
"]  c #737363",
"[  c #6F6F70",
"{  c #6F7073",
"}  c #747473",
"|  c #787877",
" . c #7B7B7A",
".. c #787774",
"X. c #807700",
"o. c #817800",
"O. c #847C1A",
"+. c #857D20",
"@. c #8E8400",
"#. c #908600",
"$. c #90870A",
"%. c #9D9200",
"&. c #87801A",
"*. c #8D841C",
"=. c #938A1C",
"-. c #9D931D",
";. c #A69A00",
":. c #A4991F",
">. c #AEA203",
",. c #B0A300",
"<. c #908721",
"1. c #928922",
"2. c #988F28",
"3. c #9F9521",
"4. c #948C3D",
"5. c #A59A22",
"6. c #AEA323",
"7. c #B3A721",
"8. c #BFB225",
"9. c #B5AA3E",
"0. c #BFB436",
"q. c #C3B514",
"w. c #CABC19",
"e. c #C2B41B",
"r. c #C1B324",
"t. c #C7B924",
"y. c #CABC2A",
"u. c #CFC01D",
"i. c #DFCE1E",
"p. c #CFC026",
"a. c #D2C326",
"s. c #D4C528",
"d. c #D7C82A",
"f. c #DACA28",
"g. c #DACA26",
"h. c #D5C730",
"j. c #DACB30",
"k. c #E0CF27",
"l. c #E0CF29",
"z. c #E9D724",
"x. c #E4D32B",
"c. c #ECDA2B",
"v. c #E8D724",
"b. c #F1DF2D",
"n. c #F6E32D",
"m. c #FBE72E",
"M. c #FFEA2E",
"N. c #FFF02F",
"B. c #FFF230",
"V. c #FFFB34",
"C. c #968F47",
"Z. c #858259",
"A. c #918B51",
"S. c #9D975D",
"D. c #A49D51",
"F. c #ABA34D",
"G. c #ACA453",
"H. c #9B9768",
"J. c #898878",
"K. c #A09C7C",
"L. c #7B7C85",
"P. c #898989",
"I. c #8A8B92",
"U. c #97979E",
"Y. c #ABABAB",
"T. c #B3B3B3",
"R. c #ECECEC",
"E. c #F0EFF0",
"W. c #F4F4F4",
"Q. c #F9F9F9",
"!. c None",
/* pixels */
"!.!.!.!.!.!.!.!.!.!.!.!.!.!.!.!.!.!.!.!.!.!.!.!.!.!.!.!.!.!.!.!.!.!.!.!.!.!.!.!.!.!.!.!.!.!.!.!.!.!.!.!.!.!.!.!.!.!.!.!.!.!.!.!.",
"!.!.!.!.!.!.!.!.!.!.!.!.!.!.!.!.!.!.!.!.!.!.!.!.!.!.!.!.!.!.!.!.!.!.!.!.!.!.!.!.!.!.!.!.!.!.!.!.!.!.!.!.!.!.!.!.!.!.!.!.!.!.!.!.",
"!.!.!.!.!.!.!.!.!.!.!.!.!.!.!.!.!.!.!.!.!.!.!.!.!.!.!.!.!.!.!.!.!.!.!.!.!.!.!.!.!.!.!.!.!.!.!.!.!.!.!.!.!.!.!.!.!.!.!.!.!.!.!.!.",
"!.!.!.!.!.!.!.!.!.!.!.!.!.!.!.!.!.!.!.!.!.!.!.!.!.!.!.!.!.!.!.!.!.!.!.!.!.!.!.!.!.!.!.!.!.!.!.!.!.!.!.!.!.!.!.!.!.!.!.!.!.!.!.!.",
"!.!.!.!.!.!.!.!.!.!.!.!.!.!.!.!.!.!.!.!.!.!.!.!.!.!.!.!.!.                X   !.!.!.!.!.!.!.!.!.!.!.!.!.!.!.!.!.!.!.!.!.!.!.!.!.",
"!.!.!.!.!.!.!.!.!.!.!.!.!.!.!.!.!.!.!.!.!.!.!.!.!.!.!.!.W   7 @ @ @ @ @ @ 8   !.!.!.!.!.!.!.!.!.!.!.!.!.!.!.!.!.!.!.!.!.!.!.!.!.",
"!.!.!.!.!.!.!.!.!.!.!.!.!.!.!.!.!.!.!.!.!.!.!.!.!.!.!.!.)   $             X   L.!.!.!.!.!.!.!.!.!.!.!.!.!.!.!.!.!.!.!.!.!.!.!.!.",
"!.!.!.!.!.!.!.!.!.!.!.!.!.!.!.!.!.!.!.!.!.!.!.!.!.!.!.!.A.o.O.O.O.O.O.O.O.O.G H.!.!.!.!.!.!.!.!.!.!.!.!.!.!.!.!.!.!.!.!.!.!.!.!.",
"!.!.!.!.!.!.!.!.!.!.!.!.!.!.!.!.!.!.!.!.!.              v.V.N.N.N.N.B.N.B.N.V.w.              !.!.!.!.!.!.!.!.!.!.!.!.!.!.!.!.!.",
"!.!.!.!.!.!.!.!.!.!.!.!.!.!.!.!.!.!.!.!.!.  a 9 7 9 7 : x.M.n.m.M.M.M.m.M.M.N.y.& 0 8 8 8 a   !.!.!.!.!.!.!.!.!.!.!.!.!.!.!.!.!.",
"!.!.!.!.!.!.!.!.!.!.!.!.!.!.!.!.!.!.!.!.!.  $           f.N.m.M.M.M.M.M.M.n.B.t.          $   !.!.!.!.!.!.!.!.!.!.!.!.!.!.!.!.!.",
"!.!.!.!.!.!.!.!.!.!.!.!.!.!.!.!.!.!.!.!.H.;.5.5.5.5.5.5.b.M.M.M.M.M.M.M.M.M.M.x.:.5.5.5.5.5.;.K.!.!.!.!.!.!.!.!.!.!.!.!.!.!.!.!.",
"!.!.!.!.!.!.!.!.!.!.!.!.!.!.!.!.!.      ,.V.N.N.N.B.N.B.M.M.M.M.M.M.M.M.m.M.M.M.B.B.B.B.B.N.V.@.      !.!.!.!.!.!.!.!.!.!.!.!.!.",
"!.!.!.!.!.!.!.!.!.!.!.!.!.!.!.!.!.  d & 6.N.m.m.M.m.m.m.M.M.M.M.M.M.M.M.M.M.M.m.M.n.n.M.m.m.N.1.& w + !.!.!.!.!.!.!.!.!.!.!.!.!.",
"!.!.!.!.!.!.!.!.!.!.!.!.!.!.!.!.!.  $   5.V.M.M.M.M.M.M.M.M.M.M.M.M.M.M.M.M.M.M.M.M.M.M.M.M.B.&.  X   !.!.!.!.!.!.!.!.!.!.!.!.!.",
"!.!.!.!.!.!.!.!.!.!.!.!.!.!.!.!.H.w.t.8.x.M.M.M.M.M.M.M.M.M.M.M.M.M.M.m.M.M.M.M.M.M.M.M.M.M.M.f.r.t.w.J.!.!.!.!.!.!.!.!.!.!.!.!.",
"!.!.!.!.!.!.!.!.!.!.!.!.!.      #.V.B.B.M.M.M.M.M.M.M.M.M.M.M.M.M.M.M.M.M.M.M.M.M.M.M.M.M.M.m.N.B.B.V.B       !.!.!.!.!.!.!.!.!.",
"!.!.!.!.!.!.!.!.!.!.!.!.!.. 0 & 1.B.n.M.M.M.M.M.M.M.M.M.M.M.M.M.m.M.M.M.M.M.M.M.M.M.M.M.M.M.M.M.M.n.M.S & # h !.!.!.!.!.!.!.!.!.",
"!.!.!.!.!.!.!.!.!.!.!.!.!.  X   *.B.m.M.M.M.M.M.M.M.M.M.M.m.M.M.M.N.M.M.m.M.M.M.M.M.M.M.m.M.M.M.M.M.B.A     y !.!.!.!.!.!.!.!.!.",
"!.!.!.!.!.!.!.!.!.!.!.' Z.x.f.f.c.M.M.M.M.M.M.M.M.M.M.M.M.M.M.n.G D A *.M.M.M.m.M.M.M.M.M.M.M.M.M.M.M.x.f.l.j.^ ` W !.!.!.!.!.!.",
"!.!.!.!.!.!.!.!.!.      B B.N.N.M.M.M.M.M.M.M.M.M.M.M.M.M.M.M.n.1     M M.M.M.M.M.M.M.M.M.M.M.m.M.m.M.N.N.B.M.4     h !.!.!.!.!.",
"!.!.!.!.!.!.!.!.!.h O $ S M.m.m.M.M.M.M.M.M.M.M.M.M.M.M.M.M.M.n.6     A M.M.M.M.M.M.M.M.m.M.M.M.M.M.M.M.M.M.n.k X X !.!.!.!.!.!.",
"!.!.!.!.!.!.!.!.!.p o   Z N.M.M.M.M.M.M.M.M.M.M.M.M.M.M.m.M.M.n.x 2 O Z M.M.M.m.M.M.M.M.M.M.N.m.n.n.n.n.n.n.b.H f , !.!.!.!.!.!.",
"!.!.!.!.!.!.!.!.!.g   X Z N.M.m.M.M.M.M.M.M.M.M.M.M.M.M.M.M.M.M.c.n.c.n.M.M.M.M.M.m.M.M.m.m.B.-.< c b k l 5 K !.!.!.!.!.!.!.!.!.",
"!.!.!.!.!.!.!.!.!.a O X Z N.m.M.M.M.M.M.M.M.M.M.M.M.M.M.M.M.M.M.N.N.N.M.M.m.m.m.m.m.m.m.m.m.B.*.X % X $ $   i !.!.!.!.!.!.!.!.!.",
"!.!.!.!.!.!.!.!.!.f     V N.M.M.M.M.M.M.M.M.M.M.M.M.M.M.M.M.M.M.M.m.M.M.N.N.N.N.N.N.N.N.N.M.B.#.            p !.!.!.!.!.!.!.!.!.",
"!.!.!.!.!.!.!.!.!.J v b O.N.M.M.M.M.M.M.M.M.M.M.M.M.M.M.M.M.M.M.M.M.M.n.x.c.x.x.v.x.v.v.x.x.c.C.I E Y E E R W !.!.!.!.!.!.!.!.!.",
"!.!.!.!.!.E   X 5 n.M.M.M.M.m.M.M.M.M.M.M.M.M.M.M.M.M.M.M.M.M.M.M.m.M.x.X     X   X X X X ;   T.!.!.!.!.!.!.!.!.!.!.!.!.!.!.!.!.",
"!.!.!.!.!.Y   X b n.M.M.M.M.M.M.M.M.M.M.M.M.M.M.M.M.M.M.m.M.M.n.m.m.M.x.$ > - - - - - - - p   !.!.!.!.!.!.!.!.!.!.!.!.!.!.!.!.!.",
"!.!.!.!.!.E   $ b n.M.m.M.M.M.M.M.M.M.M.M.M.M.M.M.M.M.M.M.N.B.B.B.N.B.v.                      !.!.!.!.!.!.!.!.!.!.!.!.!.!.!.!.!.",
"!.!.!.!.!.R   $ 6 n.M.M.M.M.M.M.M.M.M.M.M.M.M.M.M.M.M.M.g.p.a.a.a.p.a.0...} } | [ | [ | `  ._ !.!.!.!.!.!.!.!.!.!.!.!.!.!.!.!.!.",
"!.!.!.!.!.E   $ c n.N.M.M.M.M.M.M.M.M.M.M.M.M.M.M.M.M.M.M         $   ) Q.W.Q.W.Q.W.Q.W.Q.W.Q.!.!.!.!.!.!.!.!.!.!.!.!.!.!.!.!.!.",
"!.!.!.!.!.E   X k n.M.M.M.M.M.M.M.M.M.M.M.M.M.m.M.M.M.N.D   2 1 1 q   Q R.R.R.R.R.R.R.R.R.R.R.!.!.!.!.!.!.!.!.!.!.!.!.!.!.!.!.!.",
"!.!.!.!.!.E   $ k n.M.M.M.M.M.M.M.M.M.M.M.M.M.M.m.M.m.M.x         $   / Q.Q.Q.Q.Q.Q.Q.Q.Q.Q.!.!.!.!.!.!.!.!.!.!.!.!.!.!.!.!.!.!.",
"!.!.!.!.!.E   X k n.M.M.M.M.M.M.M.M.M.M.M.M.M.M.M.M.M.M.7.-.-.:.-.3.%.D.T.Y.T.Y.T.Y.T.Y.T.Y.T.!.!.!.!.!.!.!.!.!.!.!.!.!.!.!.!.!.",
"!.!.!.!.!.E   $ e m.M.M.M.M.M.M.M.M.M.M.M.M.M.M.M.M.M.m.B.B.B.B.B.B.V.v.                      !.!.!.!.!.!.!.!.!.!.!.!.!.!.!.!.!.",
"!.!.!.!.!.E   t n n.M.M.m.M.M.M.M.M.M.M.M.M.M.M.M.M.M.M.m.m.m.M.m.m.M.l.> 8 8 8 8 8 8 8 9 a   !.!.!.!.!.!.!.!.!.!.!.!.!.!.!.!.!.",
"!.!.!.!.!.h     1 N.N.N.B.M.M.M.M.M.M.M.M.M.M.M.M.M.M.M.M.M.M.M.M.m.B.l.                  $   !.!.!.!.!.!.!.!.!.!.!.!.!.!.!.!.!.",
"!.!.!.!.!.!.!.!.!.3.-.=.7.M.M.M.M.M.M.M.M.M.M.M.M.M.M.M.M.M.M.M.M.M.M.n.8.r.r.r.8.r.r.8.r.8.q.H.U.P.!.P.!.!.!.!.!.!.!.!.!.!.!.!.",
"!.!.!.!.!.!.!.!.!.r     N N.m.m.M.M.M.M.M.M.M.M.M.M.M.M.M.M.M.M.M.M.M.M.N.B.N.B.B.B.B.B.B.B.V.@.              !.!.!.!.!.!.!.!.!.",
"!.!.!.!.!.!.!.!.!.g + X F N.M.M.M.M.M.M.M.M.M.M.M.M.M.M.M.M.M.M.M.M.M.M.m.m.m.m.m.M.n.M.M.n.B.1.& 9 7 : 8 O h !.!.!.!.!.!.!.!.!.",
"!.!.!.!.!.!.!.!.!.p   o Z N.M.m.M.M.M.M.M.M.M.M.M.M.M.M.M.M.M.M.M.M.M.M.M.M.M.M.M.M.M.M.M.n.B.*.        X   r !.!.!.!.!.!.!.!.!.",
"!.!.!.!.!.!.!.!.!.g   X Z N.M.M.M.M.M.M.M.M.M.M.M.M.M.M.m.M.M.M.M.M.M.m.m.M.M.M.M.M.M.M.M.M.M.v.d.g.f.f.f.g.h.] { _ !.!.!.!.!.!.",
"!.!.!.!.!.!.!.!.!.p . X Z M.m.M.M.M.M.M.M.M.M.M.M.M.M.m.M.M.M.M.M.M.M.M.M.M.M.M.M.M.M.M.M.M.M.M.B.N.M.B.N.B.M.4     h !.!.!.!.!.",
"!.!.!.!.!.!.!.!.!.g     D N.M.M.M.M.M.M.M.M.M.M.M.M.M.M.M.M.M.M.M.M.m.M.M.M.M.M.M.M.M.M.M.M.M.m.m.m.M.M.M.M.n.l $   W !.!.!.!.!.",
"!.!.!.!.!.!.!.!.!.s > & S M.m.M.m.M.m.M.M.M.M.M.M.M.M.M.M.M.M.M.M.M.M.M.M.M.M.m.M.M.M.M.M.M.M.M.M.M.M.n.n.M.n.n t   E !.!.!.!.!.",
"!.!.!.!.!.!.!.!.!.!.!.!.!.z m 3 -.N.M.M.M.M.M.M.M.M.M.M.m.M.M.M.M.M.M.M.m.M.M.M.M.M.M.M.M.M.M.M.m.M.M.O.e z K !.!.!.!.!.!.!.!.!.",
"!.!.!.!.!.!.!.!.!.!.!.!.!.  % X *.N.m.M.M.M.M.M.M.M.M.M.M.M.M.M.M.M.M.m.M.M.M.M.M.M.M.M.M.M.M.M.M.M.N.A X   i !.!.!.!.!.!.!.!.!.",
"!.!.!.!.!.!.!.!.!.!.!.!.!.      $.B.M.M.M.m.M.M.M.M.M.M.M.M.M.M.M.M.M.m.M.M.M.m.M.M.M.M.M.M.M.M.N.N.N.C     a !.!.!.!.!.!.!.!.!.",
"!.!.!.!.!.!.!.!.!.!.!.!.!.h Y L 4.n.c.c.n.M.M.M.M.M.M.M.M.M.M.M.M.M.M.M.M.M.M.M.M.M.M.M.M.M.M.n.x.c.c.! P T R !.!.!.!.!.!.!.!.!.",
"!.!.!.!.!.!.!.!.!.!.!.!.!.!.!.!.!.  q   6.B.M.M.M.M.M.M.M.M.M.M.M.M.M.M.M.M.M.M.M.M.M.M.M.n.B.=.  3   !.!.!.!.!.!.!.!.!.!.!.!.!.",
"!.!.!.!.!.!.!.!.!.!.!.!.!.!.!.!.!.  a $ 6.N.m.m.M.m.M.m.M.M.M.M.M.M.m.M.M.M.M.m.m.M.m.M.M.m.M.<.$ 8   !.!.!.!.!.!.!.!.!.!.!.!.!.",
"!.!.!.!.!.!.!.!.!.!.!.!.!.!.!.!.!.      >.V.N.N.N.B.N.N.M.M.M.M.M.M.M.M.m.M.M.N.N.B.N.N.N.N.V.@.      !.!.!.!.!.!.!.!.!.!.!.!.!.",
"!.!.!.!.!.!.!.!.!.!.!.!.!.!.!.!.!.W ..( G.i.d.f.f.f.f.f.n.M.m.M.M.M.M.M.M.M.M.b.d.g.d.f.f.f.g.S.( .._ !.!.!.!.!.!.!.!.!.!.!.!.!.",
"!.!.!.!.!.!.!.!.!.!.!.!.!.!.!.!.!.!.!.!.!.  &           l.N.m.M.M.M.M.M.M.m.B.t.          $   !.!.!.!.!.!.!.!.!.!.!.!.!.!.!.!.!.",
"!.!.!.!.!.!.!.!.!.!.!.!.!.!.!.!.!.!.!.!.!.  a 7 7 , 8 = l.N.m.m.m.m.m.m.m.m.N.y.& 9 , 7 , a   !.!.!.!.!.!.!.!.!.!.!.!.!.!.!.!.!.",
"!.!.!.!.!.!.!.!.!.!.!.!.!.!.!.!.!.!.!.!.!.              v.V.B.B.B.B.B.B.B.N.V.u.              !.!.!.!.!.!.!.!.!.!.!.!.!.!.!.!.!.",
"!.!.!.!.!.!.!.!.!.!.!.!.!.!.!.!.!.!.!.!.!.!.!.!.!.P.!.P.9.e.8.r.r.r.r.8.8.8.q.F.I.!.!.!.!.!.!.!.!.!.!.!.!.!.!.!.!.!.!.!.!.!.!.!.",
"!.!.!.!.!.!.!.!.!.!.!.!.!.!.!.!.!.!.!.!.!.!.!.!.!.!.!.!./   X             $   L.!.!.!.!.!.!.!.!.!.!.!.!.!.!.!.!.!.!.!.!.!.!.!.!.",
"!.!.!.!.!.!.!.!.!.!.!.!.!.!.!.!.!.!.!.!.!.!.!.!.!.!.!.!._   a 8 9 9 9 9 8 a X J.!.!.!.!.!.!.!.!.!.!.!.!.!.!.!.!.!.!.!.!.!.!.!.!.",
"!.!.!.!.!.!.!.!.!.!.!.!.!.!.!.!.!.!.!.!.!.!.!.!.!.!.!.!.U                     } !.!.!.!.!.!.!.!.!.!.!.!.!.!.!.!.!.!.!.!.!.!.!.!.",
"!.!.!.!.!.!.!.!.!.!.!.!.!.!.!.!.!.!.!.!.!.!.!.!.!.!.!.!.!.!.!.!.!.!.!.!.!.!.!.!.!.!.!.!.!.!.!.!.!.!.!.!.!.!.!.!.!.!.!.!.!.!.!.!.",
"!.!.!.!.!.!.!.!.!.!.!.!.!.!.!.!.!.!.!.!.!.!.!.!.!.!.!.!.!.!.!.!.!.!.!.!.!.!.!.!.!.!.!.!.!.!.!.!.!.!.!.!.!.!.!.!.!.!.!.!.!.!.!.!.",
"!.!.!.!.!.!.!.!.!.!.!.!.!.!.!.!.!.!.!.!.!.!.!.!.!.!.!.!.!.!.!.!.!.!.!.!.!.!.!.!.!.!.!.!.!.!.!.!.!.!.!.!.!.!.!.!.!.!.!.!.!.!.!.!."
};
