/* XPM */
static char *result[] = {
/* columns rows colors chars-per-pixel */
"64 64 59 1 ",
"  c #010000",
". c #0D0000",
"X c #150000",
"o c #1C0000",
"O c #220000",
"+ c #2B0000",
"@ c #350000",
"# c #3D0202",
"$ c #450202",
"% c #4D0303",
"& c #530303",
"* c #5B0101",
"= c #630202",
"- c #6C0505",
"; c #750404",
": c #7C0202",
"> c #7F0808",
", c #840000",
"< c #8E0000",
"1 c #820808",
"2 c #8C0A0A",
"3 c #960101",
"4 c #9E0000",
"5 c #940A0A",
"6 c #9C0C0C",
"7 c #A30000",
"8 c #AC0303",
"9 c #A30D0D",
"0 c #AD0F0F",
"q c #B50000",
"w c #BC0000",
"e c #B30F0F",
"r c #B61010",
"t c #BA1010",
"y c #C60000",
"u c #CA0000",
"i c #D10101",
"p c #DD0000",
"a c #D50B0B",
"s c #D90E0E",
"d c #C31212",
"f c #CC1313",
"g c #D41414",
"h c #DB1414",
"j c #E40000",
"k c #EC0000",
"l c #ED0808",
"z c #F20000",
"x c #FF0000",
"c c #F30C0C",
"v c #F90909",
"b c #E51717",
"n c #E91616",
"m c #E51818",
"M c #EC1818",
"N c #F01010",
"B c #FA1010",
"V c #F21919",
"C c None",
/* pixels */
"CCCCCCCCCCCCCCCCCCCCCCCCCCCCCCCCCCCCCCCCCCCCCCCCCCCCCCCCCCCCCCCC",
"CCCCCCCCCCCCCCCCCCCCCCCCCCCCCCCCCCCCCCCCCCCCCCCCCCCCCCCCCCCCCCCC",
"CCCCCCCCCCCCCCCCCCCCCCCCCCCCCCCCCCCCCCCCCCCCCCCCCCCCCCCCCCCCCCCC",
"CCCCCCCCCCCCCCCCCCCCCCCCCCCCCCCCCCCCCCCCCCCCCCCCCCCCCCCCCCCCCCCC",
"CCCCCC                                                    CCCCCC",
"CCCCC .  .   .    .  .  .    .   .  .   .    .  . .   .  . CCCCC",
"CCCCCO+OOOOOOOOOOOOOOOOOOOOOOOOOOOOOOoOooooooOoOooooOooooOoCCCCC",
"CCCCCC                                                    CCCCCC",
"CCCCC4wqqqqqqqqqqqqqqqqqqqqqqqqqqqqw89999999999999999999902CCCCC",
"CCCC yxxxxxxxxxxxxxxxxxxxxxxxxxxxxxxvMMMMVMMMMMMVMMMMMMMMVe CCCC",
"CCCC wxxxxxxxxxxxxxxxxxxxxxxxxxxxxxxcbbbbbmmbbbbbbbbbbbbbM0 CCCC",
"CCCC wxxxxxxxxxxxxxxxxxxxxxxxxxxxxxxcbbnbMmmbbbmbbbbbbbmbM0 CCCC",
"CCCC;uxxxxxxxxxxxxxxxxxxxxxxxxxxxxxxnbbbmbbbmbbnbbbbbbbbbne&CCCC",
"CC 7xxxxxxxxxxxxxxxxxxxxxxxxxxxxxxcmbbbbbbnmnbbbbbbbbbbMsuui, CC",
"CC 4xxxxxxxxxxxxxxxxxxxxxxxxxxxxxxcbnbbbbbbbmbbbbbbnbbbnhyuu: CC",
"CC 4xxxxxxxxxxxxxxxxxxxxxxxxxxxxxxvbbnbbbbbbbbnmnbbmbbbnhuuu: CC",
"CC 4xxxxxxxxxxxxxxxxxxxxxxxxxxxxxxcmbbbbbbmmbbnbmbnmbbbMhyyu: CC",
"CC 4xxxxxxxxxxxxw+=*&***@qxxxxxxxnbMt tMbb-;nbmbbbbbbmbuuuui, CC",
"CC 4xxxxxxxxxxxxq        7xxxxxxvbbMr rMbh@$mbbbbbbbbnbyyuyi: CC",
"CC 4xxxxxxxxxxxxq @O+OO@ 8xxxxxxxbbMr tMmm$&mnbmbbbMbnhyuuuu: CC",
"CC 4xxxxxxxxxxxxq        7xxxxxxxbbMe rMmb$%nmbbbbbbnMbyuuui: CC",
"CC 4xxxxxxxxxxxxq wpiipiijxxxxxNnbbngtgMbb$&bbbbbbbbbaauuuyi: CC",
"CC 4xxxxxxxxxxxxq jxxxxxxxxxxxxnmbbbbMmbMh$&nmbbbMbbbuyyyuuu: CC",
"CC 4xxxxxxxxxxxxq pxxxxxxxxxxxxnbbbbbbbbbb$&bbbbbbbbbuyuuuyi: CC",
"CC 4xxxxxxxxxxxxq pxxxxxxxxxxxxnmMMmnMMbMM$&MMmmbMbmmuuuuyyu: CC",
"CC 4xxxxxxxxxxxxq pxxxxxxxxjylcnmedMg0gmdr@$rfmmbbbnmuyyuuui, CC",
"CC 4xxxxxxxxxxxxq pxxxxxxxx7 dMnh -V0 eV= .o ;Mmbbmbbuuuuuyi: CC",
"CC 4xxxxxxxxxxxxq pxxxxxxxxq fMbh >Mr tV; oO 2MmbbmMmuyuyuuu: CC",
"CC 4xxxxxxxxxxxxq jxxxxxxxxq fMbh ;Vr rV- XO >MbbbbMbuyuuuui: CC",
"CC 4xxxxxxxxxxxxq uzkkkzxxv8 fMbh ;Vr tV2&o+%5Mbbbbbbuyuuuyi: CC",
"CC 4xxxxxxxxxxxxq o  X ,xcM6 fMbh ;Vr tMbm$&Mbbbbbbuyuuyyuuu: CC",
"CC 4xxxxxxxxxxxxq +  + ,xlM6 fMbh >Vr tMbb$&bbbbbbbayuuuuuyi: CC",
"CC 4xxxxxxxxxxxxq +  + <xcM6 fMMh >Mr tMmb$&bbbbnbnayuuuyuuu: CC",
"CC 4xxxxxxxxxxxxq o  X ,xcM6 fMMh ;Vr tMmh$&bbbbmbMuyuuuuuyi, CC",
"CC 4xxxxxxxxxxxxq uzkkkkxcmhg2&*>ggMr rMmb$&mmbbmauuuyyuuuyi: CC",
"CC 4xxxxxxxxxxxxq jxxxxxxcmMV;  %mMMr tMmm$&nbbbmayuuuuuyuuu: CC",
"CC 4xxxxxxxxxxxxq pxxxxxxcmbM> .*mmMr tMbh$&nbbbMayuuuuuuuui: CC",
"CC 4xxxxxxxxxxxxq pxxxxxxvmnV;  #MMMr tMbb$&nbbnMayuuuyuuuyi: CC",
"CC 4xxxxxxxxxxxxq pxxvcnlnMt2rttr50Mr tMbb$&bbmhaayyyuyuyuuu: CC",
"CC 4xxxxxxxxxxxxq pxxxmmmbM6 fVMm -Vr tMbm$&nbbsyyyyuuuuuuyi: CC",
"CC 4xxxxxxxxxxxxq pxxvbbbbM9 fnbg ;Vr tMmb$&bbMhyuuuuyuuuyyu: CC",
"CC 4xxxxxxxxxxxxq jxxxnnMnM6 fMbh >Vr rMbbX#MMmayuyuuuuyuuui, CC",
"CC 4xxxxxxxxxxxxq wpiifttgM9 fMbh ;Vr tMbb65tfMsyuuyuuuuuuyi: CC",
"CC 4xxxxxxxxxxxxq        2V6 fMbh >Vr tMbmMh >Msyuuuuyuuyuuu: CC",
"CC 4xxxxxxxxxxxxq @OOOO@ 5V6 fMMh >Vr tMbbmh 2Msyuuuyuuyuuui: CC",
"CC 4xxxxxxxxxxxxq        5V6 fMnh ;Vr rVbbMh >nhyuuyuuuuuuyi: CC",
"CC 4xxxxxxxxxxxxw@*%&%&&@6V9 fMbh#2Mr tMmbbgo2nayuuuuuuyyuuu: CC",
"CC 4xxxxxxxxxxxxxxnmbbbmbbmbbbbbmmmmmmmmbbuyyuuuuuyuyuuuuuyi: CC",
"CC 4xxxxxxxxxxxxxxnbnnbnmnmnbbbbbbnbbbbbmmuyuuyuuuuuuuuuuuyi: CC",
"CC 4xxxxxxxxxxxxxxNbbmbbbbbmbmnmbbmbbbnbmMuyuuuuuyyuyuuyyuyi: CC",
"CC 7xxxxxxxxxxxxxxnmbmbmmnbbbnnbbnbbbbbbmmuuuyuuuuuuuuuuuuui: CC",
"CCCC;uxxxxxxxxxxcnnbbbnbbbbbbbmbbmbbbMguuauuuuuuuyuuuyuuyu7*CCCC",
"CCCC wxxxxxxxxxxNmmbbbbbbbbbbbbbbbbbbMayuyuuuuyuyuuuyuuuyi3 CCCC",
"CCCC wxxxxxxxxxxNmmmbbbbbbbbbbbbbbbbbmayuuyyuyyyyyuuyyyuyu3 CCCC",
"CCCC yxxxxxxxxxxBMMMMMMMMMVMMMMMMMMMMVsuiuuiuiiuiiuuiiuuup4 CCCC",
"CCCCC4wqqqqqqqqq89999999999999999999993<3<<33<<<<<3<<<3<<3:CCCCC",
"CCCCCC                                                    CCCCCC",
"CCCCCOOOOOOOOOOOOoooooOooooOoooOOoOooooXooXooXoooXooXXooXooCCCCC",
"CCCCC..   .    ..     .  .   .    . .                      CCCCC",
"CCCCCC                                                    CCCCCC",
"CCCCCCCCCCCCCCCCCCCCCCCCCCCCCCCCCCCCCCCCCCCCCCCCCCCCCCCCCCCCCCCC",
"CCCCCCCCCCCCCCCCCCCCCCCCCCCCCCCCCCCCCCCCCCCCCCCCCCCCCCCCCCCCCCCC",
"CCCCCCCCCCCCCCCCCCCCCCCCCCCCCCCCCCCCCCCCCCCCCCCCCCCCCCCCCCCCCCCC",
"CCCCCCCCCCCCCCCCCCCCCCCCCCCCCCCCCCCCCCCCCCCCCCCCCCCCCCCCCCCCCCCC"
};
