/* XPM */
static char *result[] = {
/* columns rows colors chars-per-pixel */
"55 64 163 2 ",
"   c #610000",
".  c #6B0000",
"X  c #6F0000",
"o  c #770000",
"O  c #780000",
"+  c #790000",
"@  c #780101",
"#  c #790101",
"$  c #7A0000",
"%  c #7B0000",
"&  c #7D0000",
"*  c #7E0000",
"=  c #800000",
"-  c #810000",
";  c #820000",
":  c #830000",
">  c #840000",
",  c #850000",
"<  c #860000",
"1  c #870000",
"2  c #880000",
"3  c #890000",
"4  c #8A0000",
"5  c #8B0000",
"6  c #8C0000",
"7  c #8D0000",
"8  c #8E0000",
"9  c #8F0000",
"0  c #920000",
"q  c #930000",
"w  c #9A0000",
"e  c #9B0000",
"r  c #9C0000",
"t  c #9D0000",
"y  c #9F0000",
"u  c #A00000",
"i  c #A10000",
"p  c #B00000",
"a  c #B40000",
"s  c #D60000",
"d  c #D90000",
"f  c #DF0000",
"g  c #D80909",
"h  c #E20000",
"j  c #E50101",
"k  c #E90000",
"l  c #ED0000",
"z  c #E60A0A",
"x  c #E70B0B",
"c  c #FD0000",
"v  c #FE0000",
"b  c red",
"n  c #FF0101",
"m  c #FF0202",
"M  c #FF0303",
"N  c #FE0505",
"B  c #FD0606",
"V  c #FF0606",
"C  c #FF0707",
"Z  c #F60C0C",
"A  c #FF0808",
"S  c #FF0909",
"D  c #FF0A0A",
"F  c #FF0B0B",
"G  c #FF0C0C",
"H  c #FF0D0D",
"J  c #FF0E0E",
"K  c #FE0F0F",
"L  c #FF0F0F",
"P  c #FF1111",
"I  c #FF1212",
"U  c #FF1414",
"Y  c #FF1515",
"T  c #FF1616",
"R  c #FF1717",
"E  c #FF1818",
"W  c #FF1A1A",
"Q  c #FF1B1B",
"!  c #FF1E1E",
"~  c #FF1F1F",
"^  c #FF2020",
"/  c #FF2121",
"(  c #FF2222",
")  c #FF2323",
"_  c #FF2424",
"`  c #FE2525",
"'  c #FF2525",
"]  c #FF2626",
"[  c #FF2727",
"{  c #FD2A2A",
"}  c #FD2B2B",
"|  c #FF2A2A",
" . c #FF2D2D",
".. c #FE2E2E",
"X. c #FF2E2E",
"o. c #FF3030",
"O. c #FF3232",
"+. c #FE3434",
"@. c #FE3636",
"#. c #FE3737",
"$. c #FE3838",
"%. c #FE3A3A",
"&. c #FF3A3A",
"*. c #FE3C3C",
"=. c #FE4646",
"-. c #FE4F4F",
";. c #FF4F4F",
":. c #FF5353",
">. c #FF5858",
",. c #FE6262",
"<. c #FE6767",
"1. c #FE6868",
"2. c #FE6A6A",
"3. c #FE6C6C",
"4. c #FE6D6D",
"5. c #FE6E6E",
"6. c #FE7474",
"7. c #FE7676",
"8. c #FE7777",
"9. c #FE7E7E",
"0. c #FD8484",
"q. c #FE8A8A",
"w. c #FE8D8D",
"e. c #FE8E8E",
"r. c #FD9B9B",
"t. c #FD9D9D",
"y. c #FF9E9E",
"u. c #FEA1A1",
"i. c #FEA3A3",
"p. c #FDA6A6",
"a. c #FDA7A7",
"s. c #FDABAB",
"d. c #FEAEAE",
"f. c #FDB0B0",
"g. c #FEB0B0",
"h. c #FDB3B3",
"j. c #FFB5B5",
"k. c #FDB6B6",
"l. c #FDB9B9",
"z. c #FDBDBD",
"x. c #FDD5D5",
"c. c #FED7D7",
"v. c #FDD9D9",
"b. c #FED8D8",
"n. c #FDDBDB",
"m. c #FDDEDE",
"M. c #FDE4E4",
"N. c #FDE8E8",
"B. c #FEEAEA",
"V. c #FDEEEE",
"C. c #FDEFEF",
"Z. c #FEF1F1",
"A. c #FEF3F3",
"S. c #FDF4F4",
"D. c #FEF4F4",
"F. c #FEF6F6",
"G. c #FDF8F8",
"H. c #FDF9F9",
"J. c #FEF8F8",
"K. c #FFF8F8",
"L. c #FEFFFF",
"P. c white",
"I. c None",
/* pixels */
"I.I.I.I.I.I.I.I.I.I.I.I.I.I.I.I.I.I.I.I.I.I.I.I.I.I.I.I.I.I.I.I.I.I.I.I.I.I.I.I.I.I.I.I.I.I.I.I.I.I.I.I.I.I.I.",
"I.I.I.I.I.I.I.I.I.I.I.I.I.I.I.I.I.I.I.I.I.I.I.I.I.I.I.I.I.I.I.I.I.I.I.I.I.I.I.I.I.I.I.I.I.I.I.I.I.I.I.I.I.I.I.",
"I.I.I.I.I.I.I.I.I.I.I.I.I.I.I.I.I.I.I.I.I.I.I.I.I.I.I.I.I.I.I.I.I.I.I.I.I.I.I.I.I.I.I.I.I.I.I.I.I.I.I.I.I.I.I.",
"I.I.I.I.I.I.I.I.I.I.I.I.I.I.I.I.I.I.I.I.I.I.I.I.I.I.I.I.I.I.I.I.I.I.I.I.I.I.I.I.I.I.I.I.I.I.I.I.I.I.I.I.I.I.I.",
"I.I.I.I.I.I.I.I.I.I.I.I.I.I.I.I.I.I.I.I.I.I.I.I.I.I.I.I.I.I.I.I.I.I.I.I.I.I.I.I.I.I.I.I.I.I.I.I.I.I.I.I.I.I.I.",
"I.I.I.I.I.I.I.I.I.I.I.I.I.I.I.I.I.I.I.I.I.I.I.I.I.I.I.I.I.I.I.I.I.I.I.I.I.I.I.I.I.I.I.I.I.I.I.I.I.I.I.I.I.I.I.",
"I.I.I.I.I.I.I.I.I.I.I.I.I.I.I.I.I.I.I.I.I.I.I.I.I.I.I.I.I.I.I.I.I.I.I.I.I.I.I.I.I.I.I.I.I.I.I.I.I.I.I.I.I.I.I.",
"I.I.I.I.I.I.I.I.I.I.I.I.I.I.I.I.I.I.I.I.I.I.I.I.I.I.I.I.I.I.I.I.I.I.I.I.I.I.I.I.I.I.I.I.I.I.I.I.I.I.I.I.I.I.I.",
"I.I.I.I.I.I.I.I.I.I.I.I.I.I.I.I.I.I.I.I.I.I.I.I.I.I.I.I.I.I.I.I.I.I.I.I.I.I.I.I.I.I.I.I.I.I.I.I.I.I.I.I.I.I.I.",
"I.I.I.I.I.I.I.I.I.I.I.I.I.I.I.I.I.I.I.I.I.I.I.I.I.I.I.I.I.I.I.I.I.I.I.I.I.I.I.I.I.I.I.I.I.I.I.I.I.I.I.I.I.I.I.",
"I.I.I.I.I.I.I.I.I.I.I.I.I.I.I.I.I.I.I.I.I.I.I.I.I.I.I.I.I.I.I.I.I.I.I.I.I.I.I.I.I.I.I.I.I.I.I.I.I.I.I.I.I.I.I.",
"I.I.I.I.I.I.I.I.I.I.I.I.I.I.I.I.I.I.I.I.I.I.I.I.I.I.I.I.I.I.I.I.I.I.I.I.I.I.I.I.I.I.I.I.I.I.I.I.I.I.I.I.I.I.I.",
"I.I.I.I.I.I.I.I.I.I.I.I.I.I.I.I.I.I.I.I.I.I.I.I.I.I.I.I.I.I.I.I.I.I.I.I.I.I.I.I.I.I.I.I.I.I.I.I.I.I.I.I.I.I.I.",
"I.I.I.I.I.I.I.I.I.I.I.I.I.I.I.I.I.I.I.I.I.I.I.I.I.I.I.I.I.I.I.I.I.I.I.I.I.I.I.I.I.I.I.I.I.I.I.I.I.I.I.I.I.I.I.",
"I.I.I.I.I.I.I.I.I.I.I.I.I.I.I.I.I.I.I.I.I.I.I.I.I.I.I.I.I.I.I.I.I.I.I.I.I.I.I.I.I.I.- : : > : ; ; I.I.I.I.I.I.",
"I.I.I.I.I.I.I.I.I.I.I.I.I.I.I.I.I.I.I.I.I.I.I.I.I.I.I.I.I.I.I.I.I.I.I.I.I.I.I.I.I.I.* 5 : > : 4 = I.I.I.I.I.I.",
"I.I.I.I.I.I.I.I.I.I.I.I.I.I.I.I.I.I.I.I.I.I.I.I.I.I.I.I.I.I.I.I.I.I.I.I.I.I.I.I.I.I.* < = = = > = I.I.I.I.I.I.",
"I.I.I.I.I.I.I.I.I.I.I.I.I.I.I.I.I.I.I.I.I.I.I.I.I.I.I.I.I.I.I.I.I.I.I.I.I.I.I.I.I.I.- > = = = < = I.I.I.I.I.I.",
"I.I.I.I.I.I.I.I.I.I.I.I.I.I.I.I.I.I.I.I.I.I.I.I.I.I.I.I.I.I.I.I.I.I.I.I.9 < 1 2 2 2 ; = = = = , - I.I.I.I.I.I.",
"I.I.I.I.I.I.I.I.I.I.I.I.I.I.I.I.I.I.I.I.I.I.I.I.I.I.I.I.I.I.I.I.I.I.I.I.1 = = = = = = ; - ; = 1 - I.I.I.I.I.I.",
"I.I.I.I.I.I.I.I.I.I.I.I.I.I.I.I.I.I.I.I.I.I.I.I.I.I.I.I.I.I.I.I.I.I.I.I.- - - = = = - - - - - - - I.I.I.I.I.I.",
"I.I.I.I.I.I.I.I.I.I.I.I.I.I.I.I.I.I.I.I.I.I.I.I.I.I.I.I.I.> 3 - ; - < - I.I.I.- = 2 I.I.I.I.I.I.I.I.I.I.I.I.I.",
"I.I.I.I.I.I.I.I.I.I.I.I.I.I.I.I.I.I.I.I.I.I.I.I.I.I.I.I.I.: 4 = ; - 1 - I.I.I.- = 3 I.I.I.I.I.I.I.I.I.I.I.I.I.",
"I.I.I.I.I.I.I.I.I.I.I.I.I.I.I.I.I.I.I.I.I.I.I.I.I.I.I.I.I.> = = - = - - I.I.I.- = 3 I.I.I.I.I.I.I.I.I.I.I.I.I.",
"I.I.I.I.I.I.I.I.I.I.I.I.I.I.I.I.I.I.I.I.I.I.I.I.I.I.- 4 7 - I.I.I.I.I.I.I.I.I.- = 2 I.I.I.I.I.I.I.I.I.I.I.I.I.",
"I.I.I.I.I.I.I.I.I.I.I.I.I.I.I.I.I.I.I.I.I.I.I.I.I.I.= ; , = I.I.I.I.I.I.I.I.I.- = 2 I.I.I.I.I.I.I.I.I.I.I.I.I.",
"I.I.I.I.I.I.I.I.I.I.I.I.I.I.I.I.I.I.I.I.I.I.I.I.I.I.; 2 6 : I.I.I.I.I.I.I.I.I.- , 7 I.I.I.I.I.I.I.I.I.I.I.I.I.",
"I.I.I.I.I.I.I.I.I.I.I.I.I.I.b b b b b b c b b u O : > I.I.I.I.I.I.I.I.I.- = = I.I.I.I.I.I.I.I.I.I.I.I.I.I.I.I.",
"I.I.I.I.I.I.I.I.I.I.I.I.I.b b b b b b b b b b p o 0 I.I.I.I.I.I.I.I.I.I.2 = < I.I.I.I.I.I.I.I.I.I.I.I.I.I.I.I.",
"I.I.I.I.I.I.I.I.I.I.I.I.I.b b b b b b b b b b e   $ I.I.I.I.I.I.I.I.I.I.9 , 8 I.I.I.I.I.I.I.I.I.I.I.I.I.I.I.I.",
"I.I.I.I.I.I.I.I.I.I.I.b b b b b b b b b b b b f s d l b b b I.I.I.> > : I.I.I.I.I.I.I.I.I.I.I.I.I.I.I.I.I.I.I.",
"I.I.I.I.I.I.I.I.I.I.I.b b b b b b b b b b b b b n b I ] ] _ I.I.I.< 4 - I.I.I.I.I.I.I.I.I.I.I.I.I.I.I.I.I.I.I.",
"I.I.I.I.I.I.I.I.I.I.I.b b b b b b b b b b b b v c K v b b b I.I.I.- : & I.I.I.I.I.I.I.I.I.I.I.I.I.I.I.I.I.I.I.",
"I.I.I.I.I.I.I.I.I.I.b b b b b b b b b b b b b b U b 3.k.j.g.I.I.g * = 7 I.I.I.I.I.I.I.I.I.I.I.I.I.I.I.I.I.I.I.",
"I.I.I.I.I.I.I.b b b b b b b b b b b b b b b b b ) b u.L.P.K. .b Z # + t b b b b b b b I.I.I.I.I.I.I.I.I.I.I.I.",
"I.I.I.I.I.I.I.b b b M P P P M b b b b b b b b b ( b y.L.P.Z.} b x # $ w v b v b b b b I.I.I.I.I.I.I.I.I.I.I.I.",
"I.I.I.I.I.I.I.b b m b b b b b m b b b b b b b b ( b r.J.D.M.{ b z @ $ w v b b b b b b b b b I.I.I.I.I.I.I.I.I.",
"I.I.I.I.I.I.I.b n b U $.#.$.T b m b b b b b b b I.I.I.&.@.+.B b j % & r v b b b b b b b b b I.I.I.I.I.I.I.I.I.",
"I.I.I.I.I.I.I.b E b 5.S.A.S.4.b W b b b b b b b I.I.I.b b b c b h . X q v b b b b b b b b b I.I.I.I.I.I.I.I.I.",
"I.I.I.I.I.I.I.b W b 6.L.P.L.7.b | C b b b b b b I.I.I.G F D v b k y i a v b b b b b b b b b I.I.I.I.I.I.I.I.I.",
"I.I.I.I.I.I.I.b Q b 8.L.P.L.,.b b b A b b b b b I.I.I.b b b b b b b b b b b b b b b b b b b I.I.I.I.I.I.I.I.I.",
"I.I.I.I.I.I.I.b L b ;.h.d.z.m.c.n.1.b R b b b b I.I.I.b b b b b b b b b b b b b b b b b b b I.I.I.I.I.I.I.I.I.",
"I.I.I.I.I.I.I.b b D b b b =.L.P.L.9.b ! b b b b I.I.I.b b m _ ] [ I b n b b b b b b b b b b I.I.I.I.I.I.I.I.I.",
"I.I.I.I.I.I.I.b n b D X.b 3.L.P.L.9.b ! b b b b I.I.I.b M b b b b b L b b b b b b b b b b b I.I.I.I.I.I.I.I.I.",
"I.I.I.I.I.I.I.I.b b b G b :.x.b.v.<.b R b b b b I.I.I.C b / s.k.l.2.b U b b b b b b b b b b I.I.I.I.I.I.I.I.I.",
"I.I.I.I.I.I.I.I.I.I.I.b V b v v v b S b b b b b I.I.I.J b O.G.P.L.t.b o.D b n b b b b b b b I.I.I.I.I.I.I.I.I.",
"I.I.I.I.I.I.I.I.I.I.I.b b V ~ ^ ^ S b n b b b b I.I.I.H b o.Z.P.P.e.b b b F b b b b b b b b I.I.I.I.I.I.I.I.I.",
"I.I.I.I.I.I.I.I.I.I.I.b b b b b b b b b b b b I.I.I.I.G b ..N.F.H.f.5.0.-.b G b b b b b b b I.I.I.I.I.I.I.I.I.",
"I.I.I.I.I.I.I.I.I.I.I.I.I.I.I.I.I.I.I.I.I.I.I.I.I.I.I.n b V %.*.$.V.L.L.p.b ' b b b b b b b I.I.I.I.I.I.I.I.I.",
"I.I.I.I.I.I.I.I.I.I.I.I.I.I.I.I.I.I.I.I.I.I.I.I.I.I.I.b n b b b v B.P.P.i.b _ b b b b b I.I.I.I.I.I.I.I.I.I.I.",
"I.I.I.I.I.I.I.I.I.I.I.I.I.I.I.I.I.I.I.I.I.I.I.I.I.I.I.I.I.I.Y J N C.L.L.a.b ` b b b b I.I.I.I.I.I.I.I.I.I.I.I.",
"I.I.I.I.I.I.I.I.I.I.I.I.I.I.I.I.I.I.I.I.I.I.I.I.I.I.I.I.I.b m b b 9.q.w.>.b J b b b b I.I.I.I.I.I.I.I.I.I.I.I.",
"I.I.I.I.I.I.I.I.I.I.I.I.I.I.I.I.I.I.I.I.I.I.I.I.I.I.I.I.I.b b b b b b b b G b b b b b I.I.I.I.I.I.I.I.I.I.I.I.",
"I.I.I.I.I.I.I.I.I.I.I.I.I.I.I.I.I.I.I.I.I.I.I.I.I.I.I.I.I.I.I.I.I.I.I.I.I.I.I.I.I.I.I.I.I.I.I.I.I.I.I.I.I.I.I.",
"I.I.I.I.I.I.I.I.I.I.I.I.I.I.I.I.I.I.I.I.I.I.I.I.I.I.I.I.I.I.I.I.I.I.I.I.I.I.I.I.I.I.I.I.I.I.I.I.I.I.I.I.I.I.I.",
"I.I.I.I.I.I.I.I.I.I.I.I.I.I.I.I.I.I.I.I.I.I.I.I.I.I.I.I.I.I.I.I.I.I.I.I.I.I.I.I.I.I.I.I.I.I.I.I.I.I.I.I.I.I.I.",
"I.I.I.I.I.I.I.I.I.I.I.I.I.I.I.I.I.I.I.I.I.I.I.I.I.I.I.I.I.I.I.I.I.I.I.I.I.I.I.I.I.I.I.I.I.I.I.I.I.I.I.I.I.I.I.",
"I.I.I.I.I.I.I.I.I.I.I.I.I.I.I.I.I.I.I.I.I.I.I.I.I.I.I.I.I.I.I.I.I.I.I.I.I.I.I.I.I.I.I.I.I.I.I.I.I.I.I.I.I.I.I.",
"I.I.I.I.I.I.I.I.I.I.I.I.I.I.I.I.I.I.I.I.I.I.I.I.I.I.I.I.I.I.I.I.I.I.I.I.I.I.I.I.I.I.I.I.I.I.I.I.I.I.I.I.I.I.I.",
"I.I.I.I.I.I.I.I.I.I.I.I.I.I.I.I.I.I.I.I.I.I.I.I.I.I.I.I.I.I.I.I.I.I.I.I.I.I.I.I.I.I.I.I.I.I.I.I.I.I.I.I.I.I.I.",
"I.I.I.I.I.I.I.I.I.I.I.I.I.I.I.I.I.I.I.I.I.I.I.I.I.I.I.I.I.I.I.I.I.I.I.I.I.I.I.I.I.I.I.I.I.I.I.I.I.I.I.I.I.I.I.",
"I.I.I.I.I.I.I.I.I.I.I.I.I.I.I.I.I.I.I.I.I.I.I.I.I.I.I.I.I.I.I.I.I.I.I.I.I.I.I.I.I.I.I.I.I.I.I.I.I.I.I.I.I.I.I.",
"I.I.I.I.I.I.I.I.I.I.I.I.I.I.I.I.I.I.I.I.I.I.I.I.I.I.I.I.I.I.I.I.I.I.I.I.I.I.I.I.I.I.I.I.I.I.I.I.I.I.I.I.I.I.I.",
"I.I.I.I.I.I.I.I.I.I.I.I.I.I.I.I.I.I.I.I.I.I.I.I.I.I.I.I.I.I.I.I.I.I.I.I.I.I.I.I.I.I.I.I.I.I.I.I.I.I.I.I.I.I.I."
};
