/* XPM */
static char *result[] = {
/* columns rows colors chars-per-pixel */
"96 64 153 2 ",
"   c #010001",
".  c #090102",
"X  c #010A01",
"o  c #03020A",
"O  c #09020B",
"+  c #000B0D",
"@  c #110400",
"#  c #041205",
"$  c #00130C",
"%  c #020213",
"&  c #090111",
"*  c #010C14",
"=  c #030219",
"-  c #0A0019",
";  c #000B1D",
":  c #140011",
">  c #011313",
",  c #001815",
"<  c #03111E",
"1  c #020424",
"2  c #010A23",
"3  c #01062B",
"4  c #01092D",
"5  c #001020",
"6  c #03122F",
"7  c #030734",
"8  c #010C34",
"9  c #00053E",
"0  c #010D3C",
"q  c #021130",
"w  c #01133E",
"e  c #000B45",
"r  c #00074B",
"t  c #020C4B",
"y  c #031343",
"u  c #02144B",
"i  c #041B4E",
"p  c #000B54",
"a  c #06065C",
"s  c #000F5D",
"d  c #031056",
"f  c #00125E",
"g  c #020D62",
"h  c #090B60",
"j  c #030E6C",
"k  c #011461",
"l  c #001A64",
"z  c #03126A",
"x  c #08126B",
"c  c #010F70",
"v  c #030D7B",
"b  c #120F7A",
"n  c #001676",
"m  c #081271",
"M  c #011C75",
"N  c #01137A",
"B  c #0E137B",
"V  c #03197B",
"C  c #091B7D",
"Z  c #00216A",
"A  c #002077",
"S  c #000C81",
"D  c #090E84",
"F  c #0D0D8B",
"G  c #041284",
"H  c #0A1685",
"J  c #001A81",
"K  c #01148C",
"L  c #091289",
"P  c #031A8D",
"I  c #030C95",
"U  c #041696",
"Y  c #041C94",
"T  c #091895",
"R  c #04139C",
"E  c #011B9B",
"W  c #081B9C",
"Q  c #032388",
"!  c #07219C",
"~  c #070FA2",
"^  c #0617A3",
"/  c #0D15A6",
"(  c #031EA2",
")  c #0A1DA1",
"_  c #031DAD",
"`  c #0B1EA8",
"'  c #0317B4",
"]  c #031BB4",
"[  c #091CB1",
"{  c #0514B9",
"}  c #021DBC",
"|  c #0A1CBC",
" . c #0A24A6",
".. c #022BA7",
"X. c #0126AF",
"o. c #0A21AF",
"O. c #0226B4",
"+. c #0A25B5",
"@. c #052AB2",
"#. c #0425BB",
"$. c #0A25BC",
"%. c #052ABF",
"&. c #0E28BA",
"*. c #1025B4",
"=. c #051FC4",
"-. c #081DC6",
";. c #0C1ECB",
":. c #131DCD",
">. c #021FD5",
",. c #041CD8",
"<. c #0024C5",
"1. c #0B24C5",
"2. c #032BC5",
"3. c #0A28C6",
"4. c #0324CA",
"5. c #0B26CD",
"6. c #032ACB",
"7. c #0B2ACE",
"8. c #0131CA",
"9. c #0424D3",
"0. c #0927D7",
"q. c #022CD5",
"w. c #092AD3",
"e. c #0324DD",
"r. c #0A25DB",
"t. c #052ADA",
"y. c #0A2AD9",
"u. c #0332DF",
"i. c #0325E5",
"p. c #0D25E6",
"a. c #032DE5",
"s. c #0A2CE4",
"d. c #0426EA",
"f. c #042DEC",
"g. c #0A2DEC",
"h. c #0232E4",
"j. c #0833E2",
"k. c #0033EC",
"l. c #0930EF",
"z. c #023BEE",
"x. c #0427F2",
"c. c #032CF3",
"v. c #0B2BF3",
"b. c #032CFB",
"n. c #092DFE",
"m. c #0234F4",
"M. c #023BF3",
"N. c #0234FE",
"B. c #0A35FD",
"V. c #023AFD",
"C. c #0939F9",
"Z. c #103AF1",
"A. c #0640FB",
/* pixels */
"  . O .   + s ' b.b.N.V.V.V.N.N.N.N.b.N.N.N.N.N.V.N.V.N.N.V.N.N.V.N.V.N.V.N.V.N.N.V.N.N.V.V.N.N.V.N.V.N.N.V.N.N.V.N.V.N.V.N.V.N.N.V.N.V.N.V.N.N.N.N.N.V.V.C.V.V.M.M.N.N.N.m.j.g.H + o o : @   % ",
"o   . o 4 j _ 0.m.N.N.N.k.h.j.t.t.t.t.t.t.t.t.t.t.t.t.t.t.t.t.t.t.t.t.t.t.t.t.t.t.t.t.t.t.t.t.t.t.t.t.t.t.t.t.t.t.t.t.t.t.t.t.t.t.t.t.t.t.t.t.t.w.q.w.q.w.0.y.j.q.f.b.l.m.N.N.t.5.P j % . . o % ",
"o   X 5 n #.f.C.N.N.n.d.9.o.P V k k f k k k k f s s s s f s s s f k s g s s s s s s s k s g f k s s s s f s s s f k s g s s s s f s s s s g f k s k k g g g m V M ( ;.p.v.N.N.N.N.n.-.8   . o o ",
"o X $ l } a.N.N.z.t.4.{ ~ v r 1     .             +     o     o           +     o                 +     o     o           +       o                 o o o o = 1 p g D / ;.i.m.V.V.N.a.J e     o ",
". 2 z ] x.N.N.m.d. .u + X o   . . . . . . . . . .   .   .   .   .   .   .   .   .   .   .     . .   .   .   .   .   .   .   .   .   . . . . .   .   . .   . . + X o X # y E i.k.V.M.h.#.S +     ",
"X f } i.C.B.l.2.K p *       . @       +           .   .   .   .   .   .   .   .   .   .   .   .   .   .   .   .   .   .   .   .   .   o       . .         .   o         X y ! t.B.N.m.j.O.y = . ",
", P d.m.M.B.7.Q *   . . o % = - X   X o X X X X   o X X   X   X   X o X X     o   o X     X X     o X X   X   X   X o X X     o   X X o   X o X         . .     X   o =   X u ' s.B.C.M.t.Y a   ",
"i X.b.N.V.m.=.n X . & - % +   . o .     o   o             o                   X       o     o             o                   X                 X   o X       + 1 = % & .   2 k $.l.C.V.m.=.F   ",
" .w.N.N.N.,.S r . . & = = o X           . o o     o   o . o   o o . o   .   o   o   o . .   o     o   o . o   o o   o   o   o   .   o   o . o . +   .   . X O   = = % % o o . X N :.Z.A.C.v.R . ",
"d.l.V.M.f.E 2 o   . o .   + X X X . . X       o     .                   o       .       o           .             .       . .   o               . .     . .   . o o + + o o     8 m %.M.N.B.' e ",
"n.N.M.u.4.z X . o o       X   + o X   o     o .   o     o     .   o o           . o o             o     o     .       .   o   o             .       . X X .           X . o O .   % Y m.V.B.4.N ",
"c.n.N.8.( h o . o . . X X     o . O X       X   .   o .               . o   .           o   .   .   o .         o   o           o   .   o   o   o         O .   . X     . O O O . X U N.C.N.2.Y ",
"n.b.N.6.l 7 o .     . + O . o X o o o .                                                                                                                   .   o & +     . o O O +   ^ B.m.b.8. .",
"n.m.N.<.w +         o & o o       o X                                                                                                                       o . & o +     . o .   X R d.x.b.6.&.",
"N.k.N.#.0 .   o   o   o o                                                                                                                                   . o O o   X o . .     X N 9.x.b.q.1.",
"N.N.V.O.e o   o                 o                                                                                                                               O                 . k <.c.m.8.<.",
"N.N.C.<.8                                                                                                                                                                           N O.g.N.q.#.",
"N.B.N.<.8                                                                                                                                                                           N O.g.N.q.#.",
"N.N.N.<.8   X                                                                                                                                                                       N O.f.N.q.#.",
"N.N.N.<.8                                                                                                                                                                           V O.d.N.q.#.",
"N.N.N.<.8                                                                                                                                                                           N O.g.N.q.#.",
"N.N.V.<.8                                                                                                                                                                           N O.g.N.q.#.",
"N.N.N.<.8   o                                                                                                                                                                       N O.f.N.q.#.",
"N.B.N.<.8   X                                                                                                                                                                       n O.g.N.q.#.",
"N.N.N.<.8   o                                                                                                                                                                       N O.k.N.q.#.",
"N.N.N.<.8   X                                                                                                                                                                       N O.d.B.q.#.",
"N.N.N.<.8                                                                                                                                                                           n O.g.N.q.#.",
"N.N.C.<.8                                                                                                                                                                           N O.g.N.q.#.",
"N.N.C.<.8   X                                                                                                                                                                       N O.g.N.q.#.",
"N.B.N.<.8                                                                                                                                                                           N O.g.N.q.#.",
"N.N.N.<.8                                                                                                                                                                           N O.f.N.q.#.",
"N.N.N.<.8   o                                                                                                                                                                       N O.d.N.q.#.",
"N.N.V.<.8                                                                                                                                                                           N O.f.N.q.#.",
"N.N.N.<.8                                                                                                                                                                           N O.g.N.q.#.",
"N.N.N.<.8                                                                                                                                                                           n O.g.N.q.#.",
"N.B.V.4.8                                                                                                                                                                           N O.g.N.q.#.",
"N.N.N.<.8   o                                                                                                                                                                       N O.g.N.q.#.",
"N.N.N.<.8   X                                                                                                                                                                       N O.g.N.q.#.",
"N.N.N.<.8                                                                                                                                                                           N O.f.N.q.#.",
"N.N.C.<.8                                                                                                                                                                         X N O.d.N.q.#.",
"N.N.N.9.8   X         o                                                                                                                                                         .   V <.c.m.9.#.",
"N.B.N.6.4                   .                                                                                                                           o                           n #.f.m.q.<.",
"N.N.N.6.7                   .                                                                                                                                 +         .           n +.a.m.q.2.",
"N.N.N.6.7   . o o           o o                                                                                                                         o       .   .     o         n $.f.m.w.4.",
"m.B.N.6.4     o o                   o                                                                                                                     .   o   o o . o   o   o   N &.f.m.0.6.",
"m.m.N.4.4     . o o o     o   . o o                                                                                                                     X o           o o o     .   V $.f.m.t.4.",
"c.b.N.6.4       +     o o     X o X                                                                                                                       o o o o o o o o     .     V <.b.N.0.=.",
"x.N.B.6.7     +     o o o o     o   o                                                                                                                   o . X   X   + o o o .   . X J 4.N.N.0.=.",
"b.N.B.4.f *   . X     o X X       o                                                                                                                       o       X X     . .   o o U c.N.B.0.| ",
"N.N.N.q.E t   o o o .     o         +                                                                                                                 o o             X   .   o .   P c.V.N.0.| ",
"B.B.V.h.0.v   o = o .   o o o     o o o                                                                                                                   .     o     o . O o o   2 ( m.V.N.1.T ",
"g.N.V.k.c.U X . o   . . o o                   o                                                                                                             X . X     . . O . X 3 z 3.N.V.B.+.i ",
"1.y.m.N.m.] 3 X X   . o o         + . o                                                                                                                     o X   o   . . . X X x [ d.N.V.b.W > ",
"C $.k.N.N.e.K t X X o & o     o     o                                                                                                                   X       o         o + * U r.c.m.m.e.G X ",
"q ^ a.N.N.c.,.P < % o                 o                                                                                                                 .     o o   o       0 N 6.v.m.N.a.E f   ",
"X I w.h.m.C.v. .y 1       o         o o                                                                                                             o       o     o o     + x :.a.N.m.N.q.Z q   ",
"+ g [ t.m.C.N.u.X.J d 1   o %   . .                                             X                                                                         .   . O . .   e n ..h.N.N.B.p.) w X   ",
"  2 z } d.B.C.N.B.6.P w X X .   . .   X           .   .     .   .     .   . .       . . .     .   .   .     .   .     .   . .     .   . .     .           X   .     + 8 K #.j.B.z.N.v.` d * X X ",
". X ; j _ 7.j.N.n.m.i.O.P L L b v N j n n n n N n n n n n n n n n n n n n n n n n n n n n n n n n n n n n n n n n n n n n n n n n n n n n n n n N N N N N n n n H H Y X.q.j.M.N.m.c.[ y X X o o ",
".     * y V #.e.g.B.C.N.m.x.i.4.+.O.X.X.O.O.o. .X.X.X.X.X.X.X.O.X.X.X.X.X.X.X.X.X.X.X.X.X.X.X.X.X.X.X.X.X.X.X.O.X.X.X.X.X.X.X.X.X.X.X.O.X.X.X.X.O.O.+.O.@.@.@.@.5.r.x.N.V.A.C.n.9.E f 1 o . .   ",
"X       X 7 c Y 3.g.B.V.V.m.m.k.c.f.h.h.f.k.k.a.l.l.m.g.g.c.l.g.m.l.m.g.l.m.g.l.c.g.l.v.g.m.m.g.l.l.m.g.g.c.l.g.m.l.m.g.l.m.g.l.c.l.l.g.g.c.l.l.a.k.a.f.a.k.h.h.h.k.N.V.V.N.t.#.L t +   o   . o ",
"  o o . .   1 e P =.c.N.m.M.N.B.N.N.N.N.N.N.N.N.N.N.N.N.N.N.N.N.N.b.N.N.N.N.N.N.N.N.N.N.N.b.N.N.N.N.N.N.N.N.N.N.N.b.N.N.N.N.N.N.N.N.N.N.N.N.N.N.N.N.N.N.N.m.N.N.N.M.V.N.c.9.R f O     + + X     ",
"O O & - %     o y c L ! &.5.7.7.y.w.9.6.q.t.q.w.q.t.q.q.t.q.t.w.q.q.t.q.q.t.q.q.t.q.q.t.q.q.q.t.q.t.q.q.t.q.t.w.q.q.t.q.q.t.q.q.q.q.q.t.q.q.q.q.t.w.q.0.0.0.y.0.a.q.3. .P D g 3             o + ",
"O O O = - = O .     X + f ) *.&.&.+.X.X.O.O.O.O.O.O.O.O.O.O.O.O.O.O.O.O.O.O.O.O.O.O.O.O.O.O.O.O.O.O.O.O.O.O.O.O.O.O.O.O.O.O.O.O.O.O.O.O.O.O.O.O.#.O.O.#.#.#.$.$.1.o.P u $ X o   + o   . o = = o "
};
