/* XPM */
static char *result[] = {
/* columns rows colors chars-per-pixel */
"64 64 158 2 ",
"   c #010101",
".  c #0A0202",
"X  c #020A01",
"o  c #03010A",
"O  c #09010B",
"+  c #010A09",
"@  c #001302",
"#  c #081001",
"$  c #020214",
"%  c #0A0112",
"&  c #020A13",
"*  c #02031A",
"=  c #0A031B",
"-  c #02151C",
";  c #030323",
":  c #0B0322",
">  c #010C25",
",  c #00062D",
"<  c #000E2E",
"1  c #140022",
"2  c #02102A",
"3  c #050932",
"4  c #020B3E",
"5  c #041332",
"6  c #001834",
"7  c #05133E",
"8  c #000D43",
"9  c #05014D",
"0  c #080248",
"q  c #010D4A",
"w  c #080B4C",
"e  c #031343",
"r  c #061944",
"t  c #01124A",
"y  c #030053",
"u  c #070C50",
"i  c #080B50",
"p  c #030B5A",
"a  c #021051",
"s  c #0C1155",
"d  c #00105E",
"f  c #0B135E",
"g  c #062059",
"h  c #010566",
"j  c #020D62",
"k  c #080E62",
"l  c #04076E",
"z  c #010E6A",
"x  c #021362",
"c  c #081B67",
"v  c #00136B",
"b  c #011A6D",
"n  c #040D74",
"m  c #030F7A",
"M  c #001777",
"N  c #011971",
"B  c #091873",
"V  c #02137C",
"C  c #021A7E",
"Z  c #010A83",
"A  c #0A0D82",
"S  c #031281",
"D  c #011986",
"F  c #031589",
"G  c #031A8C",
"H  c #081C8D",
"J  c #031792",
"K  c #021A92",
"L  c #091992",
"P  c #031D99",
"I  c #101D90",
"U  c #0A208F",
"Y  c #042694",
"T  c #07209F",
"R  c #0B239C",
"E  c #0D0FA0",
"W  c #0511A1",
"Q  c #0B13A6",
"!  c #041CA3",
"~  c #0818A1",
"^  c #0411AD",
"/  c #0B16AC",
"(  c #011FA9",
")  c #0716B7",
"_  c #031DB2",
"`  c #0A1DB1",
"'  c #041EBB",
"]  c #0B19BF",
"[  c #1D1FB2",
"{  c #0525A6",
"}  c #0E25A7",
"|  c #032DA6",
" . c #0123AC",
".. c #0926A9",
"X. c #0028AE",
"o. c #0225B5",
"O. c #0925B3",
"+. c #032CB6",
"@. c #0828B1",
"#. c #0423BD",
"$. c #0922BC",
"%. c #0928BE",
"&. c #1129B1",
"*. c #0510C4",
"=. c #061BC2",
"-. c #0B19C1",
";. c #101FC0",
":. c #061FD1",
">. c #081DD2",
",. c #031CDB",
"<. c #131ED8",
"1. c #0326C3",
"2. c #0923C3",
"3. c #032AC2",
"4. c #0A2BC6",
"5. c #0423CC",
"6. c #0B25CA",
"7. c #0629CD",
"8. c #0A28C8",
"9. c #0524D4",
"0. c #0C25D2",
"q. c #032DD6",
"w. c #092BD2",
"e. c #0623DD",
"r. c #0629D9",
"t. c #0A2ADC",
"y. c #0331D5",
"u. c #0331DD",
"i. c #0026E5",
"p. c #0F27E1",
"a. c #062AE1",
"s. c #0B2CE4",
"d. c #0625EA",
"f. c #0C24E8",
"g. c #032EEA",
"h. c #082AEE",
"j. c #1329E1",
"k. c #0233E3",
"l. c #0C31E1",
"z. c #003DE0",
"x. c #0332EB",
"c. c #0B31EE",
"v. c #033AEB",
"b. c #0622F0",
"n. c #032DF5",
"m. c #0C2CF4",
"M. c #0626FF",
"N. c #052EFE",
"B. c #0A2CFF",
"V. c #0233F2",
"C. c #0A31F3",
"Z. c #023AF5",
"A. c #093BF4",
"S. c #0234FE",
"D. c #0932FE",
"F. c #023AFD",
"G. c #0A38FD",
"H. c #0540FF",
/* pixels */
"  O % o v d.S.Z.Z.S.D.S.D.S.S.S.F.S.F.S.S.F.S.S.F.S.S.F.S.F.S.F.S.F.F.S.S.F.S.F.S.F.S.F.S.S.S.S.Z.S.S.F.A.v.Z.N.S.x.8.e . 1 . * ",
"  = & e ' N.S.V.v.a.q.q.r.r.q.q.r.r.r.r.r.r.r.r.r.r.r.r.r.r.r.r.r.r.r.r.r.r.r.r.r.r.r.r.r.r.r.r.w.7.7.t.t.s.g.C.Z.S.a.~ w . . * ",
"o + 5 ( N.F.Z.d.5.! b d x v x p x p p d p j x j d j p x x j p d p j x d d j p x x j p x d j d j z j x d v D ` 6.m.S.Z.N./ X o * ",
"o X b a.Z.Z.d.*.A u * .   o o       X   X     X X   X       X   X           X       X   X     X   o o $ * 8 n E :.x.F.S.9.4 o o ",
"X p >.S.S.i.J @ : % . . O O . . o .   . . . o . o . o .   o o . o o . o o . o . o . .   . o . o .   . .   X + # z 1.Z.F.q.F o X ",
"@ ^ l.v.u.P p X     . .   X X     o o o   o   o o   o     . o   .     o   o     o     o   o           o o o     + F l.F.k.1.8   ",
"6 ,.Z.G.5.7 o % * $ o X X X X X X X   X X   X   X   X X X   X X   X X X   X X   X X   X X   X   X   o     X o * X 8 ` D.Z.u.F = ",
"N i.F.Z.] ; . : o     o o o o     o   o o   o     o   o   o   o o     o   o   o o   o   o   o   o   . X o * $ $ o X Z s.H.N.=.0 ",
"..S.F.b.p = O o + + X X       o o .   o   o   o   . o   . o       o o . o .   o o .     o .   o .     . o $ $ * $ . , &.G.Z.w.y ",
"f.S.V._ & % . * o   X .       o o         .       o       o             o           o   o             . o o o o o o * x w.A.h.l ",
"B.G.q.F X o . $ + + o o o     o     o     o                   .   .         o         o     o   o     . . X   X o O o o o.G.N.F ",
"m.S.+.z o .   X o + . X X     o     .       o . o o . o o   o     o o       .   o     .     .   o   X   .   X X . O % X #.D.S.Y ",
"S.S.{ 2 : . o   o +   o o X                                                                             o o o . o O =   2.D.x.| ",
"S.N. .X ;     $ o     + .                                                                             . o O o o o o % . _ n.g.3.",
"V.D.( X ; o X   .       o                                                                               o o o   X o $   G h.k.5.",
"Z.D.! X o   o .             o                                                                           X o .     o $   C m.x.1.",
"S.S.(   $ o                                                                                                             G a.V.1.",
"S.S.(   * o                                                                                                       o     G e.V.3.",
"S.D. .  $ o                                                                                                       .     D a.V.1.",
"S.D.(   $ o                                                                                                       o     D a.x.1.",
"S.D.(   $ o                                                                                                       o     F r.V.1.",
"S.S.(   $ o                                                                                                       o     D a.V.1.",
"S.D.(   $ o                                                                                                             D a.V.1.",
"S.S.(   $ o                                                                                                       o     G e.V.1.",
"S.D. .  $ o                                                                                                       o     G a.V.1.",
"S.D.(   $ o                                                                                                       .     G e.V.3.",
"S.D.(   $ o                                                                                                       o     D a.V.1.",
"S.S.(   $ o                                                                                                             D a.x.1.",
"S.D.(   $ o                                                                                                       o     F r.V.1.",
"S.S.(   $ o                                                                                                       o     D a.V.1.",
"S.D. .  $ o                                                                                                             D a.V.1.",
"S.D. .  $ o                                                                                                       o     G e.V.1.",
"S.D.(   $ o                                                                                                             G a.V.1.",
"S.S.(   $ o                                                                                                       o     G e.V.3.",
"S.D.(   $ o                                                                                                       .     D a.V.1.",
"S.S.(   *                                                                                                         o     D a.x.1.",
"S.D. .  $ o                                                                                                       o     F r.V.1.",
"S.D.(   $ o                                                                                                       o     D a.V.1.",
"S.S.(   $ o                                                                                                             D a.V.1.",
"S.D.(   *                                                                                                         o     G e.V.1.",
"D.S.o.  * o                                                                                                         o   G g.x.1.",
"S.S._   *           o                                                                                               o   F g.x.1.",
"S.F. .  * o   o   o X                                                                               o   X o         O   S g.x.5.",
"S.D.o.  *     o     o                                                                                               O   D g.g.8.",
"S.S.o.  * o X   o                                                                                   X   o .       o o X D g.x.8.",
"V.D.o.  *     o   o o                                                                                     o o o o   %   D c.g.6.",
"n.S.o.  * o X o o   o                                                                                     o   o %   o   H V.n.5.",
"n.D.O.  * o X o   o   o   o                                                                         . o   + o o $ o o X U C.n.5.",
"N.S.{ @ .     o o     o o o                                                                           o   o   X o o % o ] S.v.] ",
"S.D.7.p o ; o   o X           o                                                                           o .     o o   ` S.Z.-.",
"D.F.a.~   : $ . o       o o                                                                           + o       . % o X $.F.C.~ ",
"C.Z.x.-.X o o   o     o                                                                                   X     . O * q t.F.g.c ",
"8.V.N.8.* X   % o     + o                                                                             X         %   ; J C.S.e.r ",
"U i.S.s.v & X = o o       o                                                                               o o   $ X t 1.Z.N.=.4 ",
"k 9.Z.N.=.r X $           o   o                                                                           o   o o > L h.Z.k.K ; ",
"9 #.z.S.p.x X   o       o o                                                                           o   o o o X i <.S.F.y.f X ",
"> W p.A.v.3.D 2 o O . X                                                                         o   X   . . .   q } C.V.N.1.-   ",
"X u >.S.A.C.#.d + o . .   X       . .     .   . .   . . .   . .   .   . .     .   . .     .   . o   X   O o o ; P w.v.N.p.f o X ",
". + C 5.k.D.m.O.G F F V m V V S M M M M M M M M M M M M M M M M M M M M M M M M M M M M M M M M V V M C V V K ( y.G.F.M.I X   & ",
"% X > v o.g.G.S.g.a.5.]  ...{ { X.X.X.X.X.X.X.X.X.X.X.X.X.X.X.X.X.X.X.X.X.X.X.X.X.X.X.X.X.X.X.X.O.O.%.@.@.@.w.c.F.F.x.( w %   X ",
"    X 3 m O.C.F.v.v.g.a.k.g.x.n.h.c.c.h.c.c.c.m.c.h.c.c.C.c.c.h.c.h.c.C.c.h.c.c.m.c.c.h.c.c.c.C.a.g.g.k.k.g.S.S.F.g.] q + $ X o ",
"X $ O % ; M e.V.F.S.S.S.Z.Z.Z.S.S.S.S.S.S.S.S.S.S.S.S.S.S.S.S.S.S.S.S.S.S.S.S.S.S.S.S.S.S.S.S.S.Z.S.S.Z.Z.S.S.S.d.) u X X $ X   ",
"& o % O   3 A H 2.0.j.a.q.q.q.e.q.q.q.q.q.q.q.q.q.q.q.q.q.q.q.q.q.q.q.q.q.q.q.q.q.q.q.q.q.q.q.q.w.r.r.0.t.t.8...B h ; X X     $ ",
"= . % % o $ + + C R &.o.{ { o.#.o.o.o.o.o.o.o.o.o.o.o.o.o.o.o.o.o.o.o.o.o.o.o.o.o.o.o.o.o.o.o.o.o.#.#.o.2.2.{ b X * o   o % % $ "
};
